# xmcd CD database file
#
# Track frame offsets:
#	150
#	10617
#	31432
#	49895
#	63406
#	83161
#	103934
#	119982
#	141325
#	156462
#	172414
#
# Disc length: 2522 seconds
#
# Revision: 0
# Processed by: cddbd v1.5.2PL0 Copyright (c) Steve Scherf et al.
# Submitted via: CDex 1.51
#
DISCID=a509d80b
DTITLE=Ana and Milton Popovic - Blue Room
DYEAR=2015
DGENRE=Blues
TTITLE0=Catfish Blues
TTITLE1=I'm Losing You
TTITLE2=Evening Shadows
TTITLE3=Grant Spivey
TTITLE4=Somebody
TTITLE5=Did Somebody Make A Fool Out Of You
TTITLE6=We Used To Know
TTITLE7=Rainy Night In Georgia
TTITLE8=Red River Blues
TTITLE9=Baby What's Wrong
TTITLE10=Tupelo
EXTD=YEAR: 2015
EXTT0=
EXTT1=
EXTT2=
EXTT3=
EXTT4=
EXTT5=
EXTT6=
EXTT7=
EXTT8=
EXTT9=
EXTT10=
PLAYORDER=
